<svg width="24" height="24" viewBox="0 0 24 24" fill="none" xmlns="http://www.w3.org/2000/svg">
<path fill-rule="evenodd" clip-rule="evenodd" d="M6.74263 0C3.01878 0 0 3.01878 0 6.74263V17.2574C0 20.9812 3.01878 24 6.74263 24H17.2574C20.9812 24 24 20.9812 24 17.2574V6.74263C24 3.01878 20.9812 0 17.2574 0H6.74263ZM6.64874 2.21618C4.20089 2.21618 2.21652 4.20056 2.21652 6.64841V17.3517C2.21652 19.7996 4.20089 21.784 6.64874 21.784H17.3049C19.7528 21.784 21.7371 19.7996 21.7371 17.3517V6.6484C21.7371 4.20056 19.7528 2.21618 17.3049 2.21618H6.64874Z" fill="#959698"/>
<path fill-rule="evenodd" clip-rule="evenodd" d="M11.9999 18.2C15.3983 18.2 18.1532 15.4451 18.1532 12.0468C18.1532 8.64845 15.3983 5.89355 11.9999 5.89355C8.60158 5.89355 5.84668 8.64845 5.84668 12.0468C5.84668 15.4451 8.60158 18.2 11.9999 18.2ZM11.9995 16.0311C14.226 16.0311 16.0309 14.2262 16.0309 11.9997C16.0309 9.7732 14.226 7.96826 11.9995 7.96826C9.77302 7.96826 7.96808 9.7732 7.96808 11.9997C7.96808 14.2262 9.77302 16.0311 11.9995 16.0311Z" fill="#959698"/>
<circle cx="18.4596" cy="5.58753" r="1.43811" fill="#959698"/>
</svg>
