<svg width="58" height="25" viewBox="0 0 58 25" fill="none" xmlns="http://www.w3.org/2000/svg">
<rect width="58" height="24.0415" fill="#EC111A"/>
<path d="M1.95312 2.4043V21.6375H5.40908L5.55934 13.0727L7.06193 21.6375H9.0153L10.5179 13.0727V21.6375H17.1293L17.5801 18.7825H20.2847L20.7355 21.6375H27.4972V15.4768H28.2485L29.7511 21.6375H33.207L31.1034 14.425C32.2876 13.2355 32.847 12.4378 33.207 10.2178L35.1604 21.6375H39.3676L42.0723 4.65818V21.6375H48.6837V18.1815H45.5283V13.824H48.6837V10.2178H45.5283V6.01051H48.6837V2.4043H38.9169L37.264 14.7255L35.9117 2.4043H32.0049L32.3055 5.25922C31.7044 3.75663 29.7511 2.4043 28.549 2.4043H23.891V19.2333L21.4868 2.4043H16.6785L14.1241 19.8343V2.4043H9.61634L7.96349 11.8706L6.31064 2.4043H1.95312Z" fill="white"/>
<path d="M49.2847 21.6375V2.4043H52.7407V18.3318H55.7459V21.6375H49.2847Z" fill="white"/>
<path d="M19.0831 7.66333L18.0312 15.3265H20.1349L19.0831 7.66333Z" fill="#EC111A"/>
<path d="M27.4976 11.7203V5.70996C28.8815 6.1469 29.7515 6.91203 29.7515 8.8654C29.7515 10.2177 28.9046 11.53 27.4976 11.7203Z" fill="#EC111A"/>
</svg>
